<?xml version="1.0" standalone="no"?>
<!DOCTYPE svg PUBLIC "-//W3C//DTD SVG 20010904//EN"
 "http://www.w3.org/TR/2001/REC-SVG-20010904/DTD/svg10.dtd">
<svg version="1.0" xmlns="http://www.w3.org/2000/svg"
 width="286.000000pt" height="286.000000pt" viewBox="0 0 286.000000 286.000000"
 preserveAspectRatio="xMidYMid meet">
<metadata>
Created by potrace 1.14, written by Peter Selinger 2001-2017
</metadata>
<g transform="translate(0.000000,286.000000) scale(0.100000,-0.100000)"
fill="#000000" stroke="none">
<path d="M0 1679 c0 -1049 2 -1180 15 -1169 12 10 15 10 15 -2 0 -8 -5 -19
-10 -24 -13 -13 16 -74 35 -74 7 0 15 9 18 21 3 12 10 18 16 15 5 -4 13 -1 16
4 5 8 12 6 24 -4 15 -14 19 -14 34 4 13 15 24 19 44 14 21 -6 25 -4 20 9 -3 9
0 18 9 21 8 3 14 1 14 -4 0 -19 17 -10 58 30 35 32 42 46 42 77 0 48 5 55 60
86 26 14 44 32 42 40 -1 10 13 18 45 27 64 16 105 31 122 44 32 25 110 -7 97
-39 -3 -8 -1 -15 4 -15 6 0 10 -9 10 -21 0 -15 5 -19 15 -15 8 3 15 1 15 -4 0
-6 9 -10 19 -10 10 0 22 -7 25 -16 5 -13 9 -14 21 -4 8 7 15 10 15 7 0 -3 17
-1 37 3 26 6 45 5 62 -5 121 -62 168 -52 186 40 10 47 8 42 24 80 7 17 22 37
33 46 16 13 21 28 22 63 0 36 4 47 18 52 15 4 18 12 13 35 -4 18 -3 29 5 29 7
0 8 6 0 19 -16 30 -13 39 26 77 27 28 34 42 30 60 -3 12 -1 35 6 50 10 22 10
28 -3 38 -9 6 -18 24 -21 39 -4 22 2 37 30 70 19 23 39 41 43 40 5 -2 6 4 2
12 -3 9 2 24 12 35 9 10 18 30 19 44 1 29 6 32 24 14 8 -8 8 -16 0 -32 -6 -12
-12 -23 -12 -26 0 -3 -6 -4 -13 -2 -10 2 -10 -3 -3 -24 11 -27 -3 -59 -20 -49
-10 6 -35 -64 -26 -72 3 -3 11 7 18 23 7 16 20 34 28 41 18 15 50 17 50 3 0
-5 -5 -10 -11 -10 -5 0 -7 -5 -4 -10 4 -6 12 -7 18 -3 15 8 -12 -27 -33 -44
-8 -7 -11 -13 -7 -13 4 0 -3 -12 -17 -27 -34 -37 -25 -40 26 -10 66 38 188
183 188 222 0 7 5 26 12 42 15 38 18 51 21 104 2 40 0 45 -15 41 -10 -2 -20 2
-24 11 -7 18 -34 11 -34 -8 0 -7 -13 -26 -28 -43 -23 -24 -34 -29 -58 -25 -20
4 -26 2 -19 -5 6 -5 19 -12 30 -14 19 -4 19 -4 -1 -10 -12 -3 -27 -2 -34 2
-17 11 -2 53 16 46 17 -6 19 20 2 30 -6 4 -17 -1 -24 -11 -18 -25 -27 -14 -29
39 -2 24 -6 49 -9 54 -3 6 1 13 10 16 12 5 15 18 12 58 -3 47 -1 53 16 50 10
-2 22 1 25 6 3 5 21 13 39 17 29 6 34 4 39 -14 6 -23 23 -29 23 -8 0 7 11 28
25 47 26 35 33 56 15 45 -16 -10 -12 11 5 25 9 8 13 21 9 36 -5 20 -3 23 10
18 12 -5 15 -2 10 10 -3 9 -10 16 -15 16 -17 0 -9 20 9 21 14 0 14 2 -3 9 -19
8 -19 9 3 9 15 1 22 7 22 21 0 11 7 23 16 27 10 3 12 8 5 12 -6 4 -8 17 -4 29
3 12 9 20 13 17 4 -3 13 2 19 9 10 11 9 16 -4 23 -14 8 -14 14 0 61 9 28 20
54 25 57 6 4 8 11 5 16 -4 5 -1 9 5 9 14 0 40 25 40 39 0 6 5 11 10 11 6 0 10
5 10 11 0 17 53 122 72 143 10 11 18 29 18 41 0 12 7 30 15 41 8 10 15 30 15
42 0 13 5 22 11 20 15 -5 22 -65 9 -73 -13 -8 -13 -105 0 -105 6 0 10 -10 10
-22 l0 -22 20 22 c12 12 29 22 40 22 10 0 22 5 25 10 10 17 48 12 41 -5 -3 -8
-9 -22 -12 -30 -11 -27 13 -16 50 23 22 22 35 44 32 54 -2 10 2 22 10 29 8 6
14 16 14 22 0 14 61 67 76 67 6 0 26 14 44 30 18 17 42 30 52 30 11 0 28 5 38
10 26 14 98 20 104 9 2 -5 3 -4 2 3 -1 7 -12 15 -24 18 -25 6 -17 25 13 33 11
2 -242 5 -562 6 -457 1 -582 -2 -586 -11 -4 -10 -6 -10 -6 0 -1 8 -18 12 -51
12 -40 0 -48 -3 -44 -15 4 -8 17 -15 29 -15 13 0 27 -5 30 -11 11 -17 -50 -6
-68 12 -9 9 -13 19 -10 23 3 3 -175 6 -396 6 -316 0 -400 -3 -395 -13 6 -9 4
-9 -7 -1 -8 7 -57 12 -118 12 l-104 1 23 -21 c14 -14 20 -27 16 -42 -3 -11 -6
-24 -6 -27 0 -4 -9 -9 -20 -12 -11 -3 -20 -13 -20 -22 0 -12 -5 -15 -16 -11
-9 3 -25 6 -35 6 -11 0 -17 5 -14 10 4 6 11 8 16 5 5 -4 6 8 2 26 -5 25 -3 30
7 24 8 -5 4 5 -8 23 -22 31 -22 31 -2 27 11 -2 18 0 15 6 -4 5 -35 9 -71 9
l-64 0 0 -1181z m1030 1161 c0 -5 -5 -10 -11 -10 -5 0 -7 5 -4 10 3 6 8 10 11
10 2 0 4 -4 4 -10z m337 -16 c-3 -3 -12 -4 -19 -1 -8 3 -5 6 6 6 11 1 17 -2
13 -5z m-377 -43 c0 -5 -7 -11 -15 -15 -9 -3 -15 0 -15 9 0 8 7 15 15 15 8 0
15 -4 15 -9z m-235 -11 c3 -5 1 -10 -4 -10 -6 0 -11 5 -11 10 0 6 2 10 4 10 3
0 8 -4 11 -10z m497 -12 c-7 -7 -12 -8 -12 -2 0 14 12 26 19 19 2 -3 -1 -11
-7 -17z m-212 -4 c0 -2 -7 -4 -15 -4 -8 0 -15 4 -15 10 0 5 7 7 15 4 8 -4 15
-8 15 -10z m-15 -34 c3 -5 2 -10 -4 -10 -5 0 -13 5 -16 10 -3 6 -2 10 4 10 5
0 13 -4 16 -10z m-878 -33 c2 -17 4 -41 5 -52 2 -11 -1 -22 -7 -23 -5 -2 -16
-8 -22 -14 -15 -12 -15 -12 -18 19 -1 12 1 21 4 19 3 -2 12 2 19 10 12 13 8
18 -10 15 -12 -2 -9 17 3 24 6 4 8 13 5 21 -3 8 0 14 7 14 7 0 13 -15 14 -33z
m23 3 c0 -5 -4 -10 -10 -10 -5 0 -10 5 -10 10 0 6 5 10 10 10 6 0 10 -4 10
-10z m861 -13 c-10 -9 -11 -8 -5 6 3 10 9 15 12 12 3 -3 0 -11 -7 -18z m319 7
c0 -8 -4 -12 -10 -9 -5 3 -10 10 -10 16 0 5 5 9 10 9 6 0 10 -7 10 -16z m-764
-21 c-4 -4 -21 -8 -38 -9 -21 -1 -26 1 -17 7 17 11 65 12 55 2z m624 -3 c0 -5
-6 -10 -14 -10 -8 0 -18 5 -21 10 -3 6 3 10 14 10 12 0 21 -4 21 -10z m155
-10 c-3 -5 -10 -10 -16 -10 -5 0 -9 5 -9 10 0 6 7 10 16 10 8 0 12 -4 9 -10z
m-274 -67 c-12 -20 -14 -14 -5 12 4 9 9 14 11 11 3 -2 0 -13 -6 -23z m109 -67
c0 -3 -4 -8 -10 -11 -5 -3 -10 -1 -10 4 0 6 5 11 10 11 6 0 10 -2 10 -4z m150
-28 c0 -12 -6 -9 -26 13 -19 22 -19 22 4 8 12 -8 22 -17 22 -21z m-540 12 c0
13 1 13 10 0 11 -17 -3 -36 -19 -26 -6 4 -11 15 -11 24 0 15 2 15 10 2 9 -13
10 -13 10 0z m110 -10 c0 -5 -5 -10 -11 -10 -5 0 -7 5 -4 10 3 6 8 10 11 10 2
0 4 -4 4 -10z m-10 -31 c0 -6 -4 -8 -9 -4 -5 3 -12 1 -16 -5 -9 -14 -42 -13
-48 3 -4 9 -7 9 -14 0 -7 -10 -13 -10 -26 0 -15 10 -7 12 48 14 40 2 65 -1 65
-8z m374 -7 c5 -1 3 -8 -3 -15 -6 -8 -8 -17 -4 -20 3 -4 1 -7 -5 -7 -6 0 -14
5 -17 10 -3 6 -1 10 4 10 6 0 11 4 11 9 0 5 -8 7 -19 4 -10 -3 -21 -1 -24 4
-5 7 27 10 57 5z m-298 -187 c1 -13 -5 -26 -13 -29 -8 -3 -11 -1 -8 4 3 5 2
18 -4 28 -7 14 -6 18 7 19 11 1 17 -7 18 -22z m189 -35 c3 -5 1 -10 -4 -10 -6
0 -11 5 -11 10 0 6 2 10 4 10 3 0 8 -4 11 -10z m88 3 c-7 -2 -19 -2 -25 0 -7
3 -2 5 12 5 14 0 19 -2 13 -5z m-228 -33 c-3 -5 -11 -10 -16 -10 -6 0 -7 5 -4
10 3 6 11 10 16 10 6 0 7 -4 4 -10z m-65 -20 c0 -5 -5 -10 -11 -10 -5 0 -7 5
-4 10 3 6 8 10 11 10 2 0 4 -4 4 -10z m-74 -40 c-1 -35 -3 -36 -35 -11 -27 21
-21 41 13 41 19 0 23 -5 22 -30z m68 -6 c3 -8 2 -12 -4 -9 -6 3 -10 10 -10 16
0 14 7 11 14 -7z m313 -21 c-11 -11 -17 -13 -17 -5 0 7 5 12 11 12 6 0 8 7 4
18 -5 14 -4 15 6 4 11 -10 10 -15 -4 -29z m-443 -99 c3 -8 1 -24 -4 -35 -10
-19 -12 -19 -34 -2 -13 10 -22 20 -20 22 2 2 11 -2 21 -10 9 -8 14 -9 10 -2
-8 13 1 43 13 43 4 0 11 -7 14 -16z m746 -364 c-13 -8 -12 -10 3 -10 9 0 17
-7 17 -15 0 -19 -9 -19 -32 2 -24 22 -23 33 5 33 18 0 19 -2 7 -10z m-176 -28
c2 -4 -4 -9 -15 -9 -10 -1 -19 2 -19 8 0 11 27 12 34 1z m-14 -52 c8 -5 11
-12 8 -16 -10 -9 -38 3 -38 16 0 12 10 13 30 0z m170 -20 c0 -5 -2 -10 -4 -10
-3 0 -8 5 -11 10 -3 6 -1 10 4 10 6 0 11 -4 11 -10z m-1140 -50 c0 -5 -4 -10
-10 -10 -5 0 -10 5 -10 10 0 6 5 10 10 10 6 0 10 -4 10 -10z m30 0 c-12 -8
-12 -10 -1 -10 8 0 12 -3 8 -6 -9 -9 -28 6 -22 17 4 5 12 9 18 9 7 0 6 -4 -3
-10z m-34 -93 c1 -9 -1 -16 -4 -14 -4 2 -16 7 -27 11 -16 6 -17 9 -5 16 20 13
33 8 36 -13z m224 -47 c-8 -5 -23 -10 -33 -10 -12 0 -16 -5 -11 -12 5 -10 4
-10 -6 -1 -7 6 -19 9 -26 6 -8 -3 -14 -1 -14 5 0 13 10 16 63 20 30 1 38 -1
27 -8z m-220 -14 c0 4 5 3 11 -3 6 -6 18 -9 25 -6 9 3 14 -2 14 -16 0 -12 -6
-21 -15 -21 -8 0 -15 5 -15 10 0 6 -9 10 -20 10 -11 0 -20 2 -20 4 0 2 -3 13
-7 23 -6 16 -5 16 10 4 9 -7 17 -10 17 -5z m160 -15 c0 -11 -59 -36 -67 -27
-3 3 1 6 10 6 10 0 17 4 17 9 0 5 8 12 18 14 9 3 18 5 20 6 1 0 2 -3 2 -8z
m-172 -55 c30 15 37 12 28 -12 -3 -9 -13 -14 -20 -11 -8 3 -17 0 -20 -8 -3
-10 0 -12 12 -8 13 4 12 2 -3 -10 -11 -9 -27 -17 -35 -17 -12 0 -11 -3 3 -11
15 -9 16 -12 2 -25 -8 -9 -15 -22 -15 -30 0 -8 -10 -14 -25 -14 -15 0 -25 -6
-25 -15 0 -9 6 -12 18 -9 14 5 14 4 3 -4 -8 -6 -16 -18 -17 -26 -2 -12 7 -16
32 -16 21 0 33 4 29 10 -3 6 1 10 9 10 9 0 16 5 16 10 0 6 11 15 25 22 13 6
22 15 18 21 -3 5 0 13 7 17 16 10 52 1 44 -11 -8 -14 37 -48 56 -42 11 3 10 1
-3 -10 -10 -8 -26 -14 -35 -12 -9 1 -11 0 -4 -2 7 -3 10 -9 6 -14 -3 -6 11 -7
38 -3 24 4 48 7 53 8 6 0 10 -7 10 -16 0 -10 11 -25 23 -34 22 -15 22 -17 5
-30 -10 -7 -25 -13 -33 -14 -12 0 -12 2 -1 9 10 7 10 10 1 16 -7 4 -15 4 -19
-1 -10 -14 -43 -14 -57 1 -7 7 -10 15 -7 19 4 3 4 6 0 6 -3 0 -16 -10 -27 -22
-19 -21 -21 -21 -14 -3 4 11 12 23 17 26 5 4 6 12 2 19 -6 10 -10 9 -17 -4 -5
-9 -16 -16 -25 -16 -13 0 -13 -3 -3 -15 11 -13 7 -15 -25 -15 -28 0 -38 5 -42
20 -5 20 -27 27 -36 13 -2 -5 -2 -3 -1 4 2 8 -13 11 -47 11 -27 -1 -49 -5 -49
-9 0 -5 7 -6 15 -3 8 4 15 1 15 -6 0 -9 -13 -10 -45 -6 -29 5 -45 4 -45 -3 0
-16 -36 -13 -49 3 -9 11 -5 16 19 26 16 7 30 16 30 21 0 5 7 9 16 9 13 0 14 3
4 15 -11 13 -16 13 -47 0 -43 -18 -44 -18 -37 -1 3 8 12 12 20 9 8 -3 14 -1
14 5 0 17 44 23 53 7 11 -21 22 -19 24 5 1 14 -4 20 -18 20 -10 0 -19 4 -19 9
0 5 9 7 20 4 14 -4 28 3 45 23 32 37 31 42 -2 37 l-28 -4 25 15 c14 8 28 12
32 10 12 -7 68 38 69 55 1 13 2 13 6 -1 4 -14 7 -15 31 -2z m82 4 c0 -5 -2
-10 -4 -10 -3 0 -8 5 -11 10 -3 6 -1 10 4 10 6 0 11 -4 11 -10z m93 -37 c-6
-38 -13 -41 -38 -13 -15 17 -16 20 -3 20 9 0 21 7 28 15 17 20 19 17 13 -22z
m-4 -51 c17 11 23 9 41 -10 19 -20 20 -23 5 -46 -18 -27 -45 -42 -45 -24 0 6
-10 19 -22 29 -23 21 -18 25 12 9 11 -6 27 -6 42 -1 20 8 21 10 6 16 -10 4
-15 11 -12 16 3 5 -2 6 -11 3 -13 -5 -13 -9 -3 -22 11 -14 10 -15 -7 -8 -11 5
-30 11 -42 13 -13 3 -23 12 -23 20 0 11 4 11 20 3 14 -8 25 -7 39 2z m-149
-12 c0 -5 -8 -10 -17 -10 -15 0 -16 2 -3 10 19 12 20 12 20 0z m240 -39 c0 -6
15 -5 36 1 30 8 39 7 53 -7 15 -16 14 -17 -8 -10 -19 6 -23 4 -18 -8 3 -9 -1
-18 -10 -21 -12 -5 -14 -1 -10 14 4 16 2 20 -12 15 -10 -3 -26 -3 -35 1 -17 7
-22 24 -6 24 6 0 10 -4 10 -9z m-315 -61 c3 -5 1 -10 -4 -10 -6 0 -11 5 -11
10 0 6 2 10 4 10 3 0 8 -4 11 -10z m151 -122 c-7 -55 -34 -97 -62 -98 -17 0
-3 60 17 70 11 7 16 16 12 27 -4 10 -2 14 5 9 6 -3 13 -2 17 4 10 16 14 12 11
-12z m-306 -2 c0 -2 -7 -9 -15 -16 -13 -11 -14 -10 -9 4 5 14 24 23 24 12z
m-10 -94 c-15 -5 8 -32 26 -32 8 0 14 -4 14 -10 0 -5 -5 -10 -12 -10 -6 0 -9
-3 -5 -6 8 -8 -13 -64 -24 -64 -5 0 -9 16 -9 35 0 26 -4 33 -14 29 -13 -5 -14
-1 -7 35 1 2 8 -2 16 -9 9 -8 15 -8 15 -2 0 18 -24 20 -53 5 -16 -8 -31 -12
-34 -10 -7 8 51 44 64 40 7 -3 10 4 6 19 -4 23 -4 23 12 3 10 -12 12 -21 5
-23z m457 6 c-3 -8 -6 -5 -6 6 -1 11 2 17 5 13 3 -3 4 -12 1 -19z m-349 -12
c3 -3 -2 -7 -11 -7 -9 -1 -23 -2 -29 -3 -18 -3 -29 4 -23 13 5 9 53 6 63 -3z
m499 -152 c-3 -3 -12 -4 -19 -1 -8 3 -5 6 6 6 11 1 17 -2 13 -5z"/>
<path d="M550 1010 c0 -5 7 -10 16 -10 8 0 12 5 9 10 -3 6 -10 10 -16 10 -5 0
-9 -4 -9 -10z"/>
<path d="M2640 2850 c0 -5 -7 -10 -16 -10 -8 0 -13 -4 -10 -8 6 -10 -21 -35
-47 -45 -10 -4 -17 -15 -15 -24 2 -13 -3 -17 -18 -16 -19 2 -59 -29 -59 -46 0
-3 -6 -6 -14 -6 -8 0 -16 -7 -18 -15 -4 -13 -3 -13 6 0 9 13 11 12 11 -5 0
-27 -54 -49 -83 -34 -11 6 -22 7 -26 3 -3 -5 -13 -9 -21 -9 -19 0 -58 -75 -63
-120 -3 -27 -1 -32 12 -27 14 5 14 4 2 -11 -8 -10 -16 -15 -19 -12 -11 11 -30
-30 -21 -47 6 -11 4 -21 -7 -32 -10 -10 -11 -16 -3 -16 9 0 9 -3 -1 -14 -8
-10 -11 -45 -8 -105 3 -81 1 -90 -14 -85 -11 3 -19 -2 -23 -15 -4 -13 -12 -18
-23 -15 -12 4 -13 3 -4 -3 7 -5 10 -17 7 -25 -4 -9 -2 -19 4 -23 7 -3 8 0 5 9
-3 9 -1 16 5 16 17 0 13 -41 -11 -90 -12 -25 -20 -49 -19 -54 1 -4 -7 -15 -17
-25 -10 -9 -16 -24 -14 -33 2 -10 -1 -18 -6 -18 -5 0 -9 -6 -9 -12 -1 -7 -3
-28 -6 -45 -3 -24 0 -33 9 -33 8 0 14 -5 14 -11 0 -5 -5 -7 -11 -3 -9 5 -10
-1 -5 -20 5 -19 3 -26 -9 -26 -14 0 -19 -12 -16 -32 0 -5 -6 -8 -15 -8 -8 0
-12 -5 -9 -11 4 -6 12 -8 19 -6 6 2 19 -4 30 -14 18 -17 17 -18 -5 -12 -16 4
-20 3 -15 -6 5 -7 5 -24 1 -39 -5 -20 -8 -23 -16 -11 -7 11 -9 11 -9 -4 0 -10
-4 -15 -10 -12 -6 4 -10 -5 -10 -19 0 -27 15 -35 23 -13 4 9 6 9 6 -1 1 -7 4
-11 9 -9 4 3 7 -14 8 -38 0 -34 -4 -45 -18 -48 -19 -5 -25 8 -8 18 6 4 7 11 4
17 -4 6 -10 5 -15 -3 -6 -10 -9 -10 -9 -2 0 7 7 16 16 21 9 5 15 15 12 22 -3
10 -8 9 -20 -4 -12 -11 -18 -13 -21 -3 -2 6 -3 -5 -3 -25 1 -21 4 -38 9 -38 4
0 7 -9 7 -21 0 -18 4 -20 33 -15 27 5 28 4 10 -4 -13 -5 -23 -18 -23 -30 0
-11 -4 -20 -10 -20 -5 0 -10 -5 -10 -10 0 -7 6 -7 20 0 18 9 19 7 18 -25 -1
-22 -6 -35 -15 -35 -7 0 -13 -3 -13 -8 0 -4 -12 -20 -26 -35 l-25 -27 42 6
c38 6 41 5 29 -8 -10 -10 -26 -14 -49 -11 -29 4 -33 2 -27 -12 3 -9 6 -18 6
-21 0 -2 8 -1 18 2 12 4 11 1 -6 -13 -17 -14 -20 -21 -11 -30 8 -8 4 -15 -17
-27 -20 -10 -24 -15 -11 -16 10 0 17 -8 17 -20 0 -21 15 -27 25 -10 10 16 28
12 21 -5 -3 -9 0 -15 9 -15 8 0 12 6 9 14 -3 7 3 16 12 20 24 9 28 1 13 -26
-7 -12 -12 -31 -10 -41 1 -9 -3 -16 -9 -15 -7 2 -17 -6 -23 -17 -7 -11 -19
-26 -27 -33 -8 -7 -9 -11 -2 -7 22 11 12 -10 -12 -25 -20 -13 -22 -18 -13 -40
l11 -25 4 32 c2 21 9 33 18 33 8 0 12 -5 9 -10 -4 -6 9 -17 27 -25 20 -8 26
-14 15 -15 -25 0 -68 -46 -61 -64 4 -11 0 -16 -11 -16 -11 0 -15 -5 -12 -14 3
-8 1 -16 -5 -18 -8 -3 -7 -11 4 -26 8 -12 17 -20 19 -17 3 2 6 -5 6 -17 1 -11
-1 -18 -4 -15 -6 6 -33 -17 -33 -29 0 -3 7 -1 15 6 9 8 15 8 15 2 0 -6 9 -14
20 -17 11 -3 20 -11 20 -17 0 -6 -8 -7 -17 -3 -15 5 -16 4 -5 -6 6 -7 12 -17
12 -21 0 -10 -37 -11 -43 0 -2 4 -2 1 0 -6 1 -7 -1 -21 -6 -30 -5 -9 -5 -26
-1 -37 6 -16 8 -14 13 13 7 32 27 45 27 17 0 -8 6 -15 13 -15 9 0 8 -3 -2 -9
-9 -6 -10 -14 -3 -27 18 -36 21 -79 6 -98 -18 -25 -18 -36 0 -36 18 0 29 -29
16 -45 -5 -6 -7 -15 -3 -18 11 -12 21 -8 26 11 4 16 5 16 6 0 1 -11 6 -15 16
-12 9 4 15 0 15 -10 0 -26 37 -80 44 -64 3 7 4 1 1 -13 -4 -24 -1 -28 48 -42
28 -9 115 -21 191 -27 77 -6 143 -13 148 -16 5 -3 15 0 23 6 8 6 23 9 34 5 11
-3 48 -8 83 -10 35 -2 81 -6 103 -9 22 -3 48 -3 57 0 17 5 18 82 18 1354 0
741 -3 1355 -6 1364 -9 23 -22 20 -26 -6 -3 -24 -15 -26 -56 -13 -14 5 -21 13
-18 22 3 8 1 11 -4 8 -6 -3 -10 -15 -10 -26 0 -10 -7 -19 -15 -19 -8 0 -15 -7
-15 -15 0 -8 7 -15 15 -15 8 0 15 4 15 9 0 5 9 7 20 4 12 -3 17 -10 13 -17
-12 -18 -12 -36 -1 -36 6 0 8 6 5 14 -6 16 26 28 49 19 17 -6 19 -24 2 -20 -7
1 -12 -5 -10 -14 2 -17 -44 -33 -53 -19 -3 5 -14 6 -25 3 -13 -3 -20 0 -20 8
0 8 -6 3 -13 -11 -11 -21 -11 -26 2 -31 9 -4 21 0 29 9 10 14 12 13 13 -9 0
-13 3 -18 6 -11 2 6 9 10 14 6 15 -9 10 -22 -8 -19 -10 1 -30 -4 -45 -11 -39
-20 -57 -17 -31 5 20 16 20 20 7 25 -9 4 -23 1 -30 -5 -18 -14 -39 -2 -25 15
8 10 4 13 -18 13 -23 0 -28 -4 -26 -19 5 -21 -10 -24 -19 -3 -3 8 2 22 11 31
14 13 14 17 2 24 -11 7 -9 10 6 15 11 4 28 11 37 16 10 5 24 9 31 9 7 0 13 9
13 20 0 11 -5 20 -10 20 -6 0 -5 5 2 12 18 18 15 28 -8 28 -11 0 -20 -4 -20
-10z m-110 -150 c0 -5 7 -7 15 -4 8 4 15 1 15 -5 0 -16 -25 -13 -40 4 -9 10
-9 15 -1 15 6 0 11 -4 11 -10z m117 -56 c0 -17 -62 -34 -78 -22 -11 7 -9 8 5
4 13 -5 17 -2 13 8 -3 8 -1 17 6 19 22 8 54 2 54 -9z m-178 -36 c11 -29 -5
-51 -30 -43 -11 4 -19 1 -19 -5 0 -8 12 -11 34 -8 19 2 32 0 30 -4 -3 -4 0 -8
6 -8 6 0 8 -4 5 -10 -3 -5 -17 -10 -30 -10 -13 0 -31 -7 -39 -16 -15 -14 -17
-14 -22 0 -4 9 -4 25 -1 36 3 11 1 20 -4 20 -16 0 2 28 22 33 10 3 19 12 19
21 0 24 19 19 29 -6z m221 8 c-18 -18 -11 -27 16 -20 20 5 26 2 31 -15 4 -16
13 -21 37 -21 22 0 27 -3 17 -9 -8 -5 -36 -8 -62 -6 -38 3 -47 1 -42 -11 7
-19 -11 -18 -27 1 -11 13 -15 14 -29 2 -9 -8 -23 -17 -31 -20 -12 -4 -11 -6 3
-6 15 -1 14 -5 -8 -28 -14 -15 -25 -33 -25 -39 0 -21 -29 -39 -42 -26 -9 9 -9
12 1 12 8 0 11 6 7 15 -3 10 1 15 14 15 19 0 23 8 34 65 5 25 4 28 -6 14 -7
-8 -21 -18 -30 -22 -14 -5 -18 -1 -18 16 0 42 24 62 74 61 35 0 47 4 51 17 3
10 15 17 25 16 13 -1 16 -5 10 -11z m-193 -132 c-3 -3 -12 -4 -19 -1 -8 3 -5
6 6 6 11 1 17 -2 13 -5z m153 -6 c0 -7 -4 -19 -9 -27 -6 -9 -8 -5 -8 13 0 14
3 26 8 26 5 0 9 -6 9 -12z m-210 -33 c0 -21 -2 -24 -14 -13 -7 7 -11 19 -9 25
9 22 23 14 23 -12z m-100 -40 c0 -5 -5 -3 -10 5 -5 8 -10 20 -10 25 0 6 5 3
10 -5 5 -8 10 -19 10 -25z m262 -32 c-6 -3 -10 -9 -6 -14 3 -5 -6 -9 -20 -9
-14 0 -26 5 -26 10 0 6 7 10 15 10 9 0 18 7 22 16 4 12 8 13 17 3 8 -8 8 -13
-2 -16z m-162 7 c0 -12 -28 -25 -36 -17 -9 9 6 27 22 27 8 0 14 -5 14 -10z m9
-67 c8 -13 10 -14 11 -4 0 11 4 9 15 -5 18 -24 19 -31 0 -31 -8 0 -15 5 -15
10 0 6 -9 2 -20 -8 -11 -10 -20 -14 -20 -9 0 5 -4 3 -9 -5 -15 -24 -20 3 -6
37 16 36 29 40 44 15z m-174 -62 c-3 -3 -10 1 -15 9 -8 13 -10 13 -10 1 0 -8
-3 -12 -6 -8 -3 3 -3 11 1 17 5 8 11 8 21 -1 8 -6 12 -14 9 -18z m177 -28 c18
-16 18 -16 12 0 -3 9 -2 17 3 17 5 0 9 -10 10 -21 1 -12 11 -28 23 -36 16 -11
18 -17 7 -27 -14 -14 -47 -17 -47 -4 0 4 7 8 15 8 8 0 15 5 15 10 0 6 -7 10
-15 10 -8 0 -14 6 -12 13 1 7 -7 11 -20 10 -13 -2 -23 2 -23 8 0 5 -4 7 -10 4
-5 -3 -10 -2 -10 4 0 8 13 17 29 20 3 1 13 -7 23 -16z m-228 -105 c3 -16 2
-28 -3 -28 -10 0 -21 47 -13 55 7 7 8 5 16 -27z m71 -48 c3 -5 1 -10 -4 -10
-6 0 -11 5 -11 10 0 6 2 10 4 10 3 0 8 -4 11 -10z m205 -122 c0 -22 -14 -35
-45 -42 l-30 -7 34 21 c27 17 31 24 20 31 -11 7 -11 9 4 9 9 0 17 -6 17 -12z
m50 -53 c13 -14 21 -25 17 -25 -3 0 -18 11 -33 25 -15 14 -23 25 -17 25 5 0
20 -11 33 -25z m-370 -19 c0 -2 -7 -7 -16 -10 -8 -3 -12 -2 -9 4 6 10 25 14
25 6z m303 -143 c4 -19 2 -33 -3 -33 -6 0 -10 17 -10 37 0 43 5 41 13 -4z
m-358 -103 c3 -5 1 -10 -4 -10 -6 0 -11 5 -11 10 0 6 2 10 4 10 3 0 8 -4 11
-10z m-15 -389 c0 -6 -4 -13 -10 -16 -5 -3 -10 1 -10 9 0 9 5 16 10 16 6 0 10
-4 10 -9z m40 -17 c0 -2 -7 -4 -15 -4 -8 0 -15 4 -15 10 0 5 7 7 15 4 8 -4 15
-8 15 -10z m-60 -24 c0 -5 -10 -10 -22 -9 -22 0 -22 1 -3 9 11 5 21 9 23 9 1
1 2 -3 2 -9z m5 -88 c-2 -3 -25 -6 -51 -8 -40 -3 -44 -2 -34 11 8 9 21 13 36
9 19 -5 24 -1 30 23 l7 28 8 -29 c5 -17 6 -32 4 -34z m-40 -181 c3 -5 1 -12
-5 -16 -5 -3 -10 1 -10 9 0 18 6 21 15 7z m15 -211 c13 -8 12 -10 -4 -10 -12
0 -16 -5 -12 -15 3 -9 0 -15 -9 -15 -16 0 -18 9 -9 34 7 18 13 19 34 6z m20
-371 c0 -6 -4 -7 -10 -4 -5 3 -10 11 -10 16 0 6 5 7 10 4 6 -3 10 -11 10 -16z"/>
<path d="M2700 2569 c0 -5 5 -7 10 -4 6 3 10 8 10 11 0 2 -4 4 -10 4 -5 0 -10
-5 -10 -11z"/>
<path d="M2775 2840 c3 -5 13 -10 21 -10 8 0 12 5 9 10 -3 6 -13 10 -21 10 -8
0 -12 -4 -9 -10z"/>
<path d="M150 2800 c0 -6 7 -10 15 -10 8 0 15 2 15 4 0 2 -7 6 -15 10 -8 3
-15 1 -15 -4z"/>
<path d="M2393 2775 c-19 -22 -63 -100 -63 -109 0 -13 69 -5 80 9 7 8 9 15 4
15 -5 1 2 7 16 15 17 10 20 14 9 15 -22 0 -34 30 -13 30 8 0 12 5 9 10 -3 6
-1 10 4 10 19 0 12 17 -8 23 -12 3 -26 -4 -38 -18z"/>
<path d="M147 2763 c-4 -3 -7 -11 -7 -17 0 -6 5 -5 12 2 6 6 9 14 7 17 -3 3
-9 2 -12 -2z"/>
<path d="M2183 2245 c-6 -14 -7 -25 -2 -25 6 0 5 -8 -1 -20 -13 -25 -2 -26 16
-2 14 18 19 72 7 72 -5 0 -13 -11 -20 -25z"/>
<path d="M2146 2053 c-17 -63 -16 -68 3 -33 23 39 25 50 12 50 -5 0 -12 -8
-15 -17z"/>
<path d="M1599 1731 l-24 -19 28 1 c18 2 27 7 27 20 0 21 -2 21 -31 -2z"/>
<path d="M2017 1619 c4 -13 9 -17 15 -11 11 11 3 32 -12 32 -4 0 -6 -9 -3 -21z"/>
<path d="M1974 1486 c-3 -9 -3 -24 1 -33 6 -17 7 -17 21 2 8 10 13 24 11 29
-6 17 -27 18 -33 2z"/>
<path d="M1990 1321 c0 -5 5 -13 10 -16 6 -3 10 -2 10 4 0 5 -4 13 -10 16 -5
3 -10 2 -10 -4z"/>
<path d="M1966 1274 c-8 -22 1 -31 16 -16 9 9 9 15 1 23 -7 7 -12 5 -17 -7z"/>
<path d="M1965 981 l20 -8 -20 -5 c-19 -5 -19 -5 -1 -13 12 -5 21 -3 26 6 12
18 3 29 -23 28 -21 0 -21 -1 -2 -8z"/>
<path d="M1915 856 c0 -13 4 -28 9 -33 5 -4 6 -3 3 4 -4 6 -1 13 5 16 10 3 9
9 -2 21 -15 15 -16 14 -15 -8z"/>
<path d="M1965 830 c-3 -5 -1 -10 4 -10 6 0 11 5 11 10 0 6 -2 10 -4 10 -3 0
-8 -4 -11 -10z"/>
<path d="M1951 684 c0 -11 3 -14 6 -6 3 7 2 16 -1 19 -3 4 -6 -2 -5 -13z"/>
<path d="M1950 560 c0 -5 5 -10 10 -10 6 0 10 5 10 10 0 6 -4 10 -10 10 -5 0
-10 -4 -10 -10z"/>
</g>
</svg>
